<?xml version="1.0" encoding="utf-8"?>
<!-- Generator: Adobe Illustrator 20.0.0, SVG Export Plug-In . SVG Version: 6.00 Build 0)  -->
<svg version="1.1" id="Layer_1" xmlns="http://www.w3.org/2000/svg" xmlns:xlink="http://www.w3.org/1999/xlink" x="0px" y="0px"
	 viewBox="0 0 960 960" style="enable-background:new 0 0 960 960;" xml:space="preserve">
<style type="text/css">
	.st0{fill:#2B292A;}
	.st1{fill:#FFE0BC;}
	.st2{fill:#FBB665;}
	.st3{fill:#4A4546;}
	.st4{fill:#FFFFFF;}
	.st5{fill:#E15737;}
	.st6{opacity:0.53;}
	.st7{fill:#CF7628;}
</style>
<g>
	<g>
		<path class="st0" d="M317.88,513.44c0,0-11.21,15.87-8.32,21.18c2.88,5.32,277.34-283.16,290.96-323.39
			c13.63-40.22-19.42-38.67-34.82-20.26C550.29,209.39,336.33,492.84,317.88,513.44z"/>
		<path class="st0" d="M307.61,538.6l-1.34-2.21c-3.6-6.62,4.79-19.76,8.56-25.1l0.27-0.34c10.72-11.97,90.43-116.61,154.48-200.7
			c46.59-61.17,86.83-113.99,93.26-121.68c9.95-11.88,26.06-17.04,35.93-11.51c5.42,3.04,13.3,11.68,5.27,35.35
			c-8.04,23.73-96.24,121.53-148.1,177.72c-1.36,1.48-136.49,147.45-145.9,148.25L307.61,538.6z M320.8,515.76
			c-2.37,3.38-4.48,7.03-5.94,10.13c43.07-39.64,270.38-281.13,282.13-315.85c4.6-13.57,3.93-23.22-1.86-26.47
			c-6.67-3.73-19.08,0.83-26.57,9.79c-6.32,7.55-46.51,60.32-93.05,121.41C408.34,402.95,332.24,502.84,320.8,515.76z"/>
	</g>
	<g>
		<path class="st1" d="M288.69,750.29c-28.32-33.24-15.9-47.16,4.67-70.21c5.12-5.74,10.92-12.23,17.12-20.07
			c14.97-18.92,8.28-26.52-5.04-41.66c-8.9-10.11-19.97-22.7-23.3-41.23c-8.58-47.76,82.87-69.93,86.77-70.85l3.43,14.49
			c-22.73,5.39-80.6,25.54-75.54,53.73c2.59,14.44,11.35,24.4,19.83,34.02c13.22,15.03,28.22,32.06,5.54,60.73
			c-6.47,8.19-12.43,14.86-17.68,20.75c-20.16,22.58-24.35,27.28-4.45,50.64L288.69,750.29z"/>
	</g>
	<g>
		<path class="st2" d="M349.88,785.27c-6.84,0-12.82-2.62-17.36-7.75c-13.56-15.33-10.47-48.48,8.25-88.7
			c17.79-38.2,7.06-51.68-6.54-68.76c-5.4-6.78-10.99-13.79-15.01-22.68c-12.96-28.66,10.72-49.36,25.05-56.3l6.48,13.41l-3.24-6.7
			l3.26,6.69c-2.9,1.42-28.04,14.57-17.99,36.77c3.25,7.19,8.03,13.19,13.09,19.54c14.1,17.7,30.08,37.77,8.39,84.31
			c-17.72,38.05-17.91,64.28-10.6,72.54c0.94,1.06,3.82,4.31,11.53,1.79l4.6,14.16C356.35,784.72,353.03,785.27,349.88,785.27z"/>
	</g>
	<g>
		<path class="st2" d="M390.86,639.63c-2.69-19.41-10.27-23.4-21.75-29.42c-7.88-4.14-16.82-8.84-25.3-18.87
			c-23.68-27.98,10.77-69.18,12.25-70.93l11.36,9.63c-0.28,0.33-27.79,33.3-12.24,51.68c6.61,7.82,13.86,11.62,20.86,15.3
			c12.7,6.67,25.83,13.57,29.57,40.55L390.86,639.63z"/>
	</g>
	<g>
		<path class="st3" d="M340.19,529.88c0,0-15.4,11.84-14.21,17.77c1.18,5.93,348.64-188.54,373.55-222.94
			c24.9-34.39-7.12-42.69-27.28-29.65C652.09,308.11,363.9,515.65,340.19,529.88z"/>
		<path class="st3" d="M325.66,551.44c-0.12,0-0.23-0.01-0.32-0.03l-2.38-0.52l-0.62-2.51c-1.49-7.39,10.4-17.46,15.59-21.45
			l0.35-0.24c13.77-8.27,120.73-84.59,206.68-145.92c62.7-44.74,116.86-83.38,125.28-88.83c13-8.42,29.92-8.6,37.72-0.38
			c4.27,4.5,9.25,15.08-5.4,35.33c-14.7,20.29-127.87,87.66-194.02,126.01C506.8,453.9,338,551.44,325.66,551.44z M342.3,532.96
			c-3.26,2.53-6.36,5.39-8.67,7.92c52.86-25.15,341.39-188.67,362.88-218.35c8.4-11.61,10.61-21.03,6.04-25.84
			c-5.27-5.55-18.47-4.85-28.28,1.5c-8.28,5.35-62.36,43.95-125,88.64C459.14,451.15,357.02,524.02,342.3,532.96z"/>
	</g>
</g>
<g>
	<g>
		<path class="st4" d="M503.04,364.07c0,0,8.48-1.67,13.51-2.36"/>
		<path class="st5" d="M503.76,367.73l-1.44-7.31c0,0,8.61-1.69,13.72-2.4l1.02,7.37C512.11,366.08,503.76,367.73,503.76,367.73z"/>
	</g>
	<g>
		<path class="st4" d="M176.35,274.09l87.15-31.52l405.9-3.9l72.44,24.41l-76.87,476.29c0,0-197.51,9.67-411.28,2.65L176.35,274.09z
			"/>
		<path class="st5" d="M416.85,752c-51.18,0-106.81-0.68-163.4-2.54l-6.11-0.2L168,269.2l94.17-34.05l1.26-0.01l407.16-3.91
			l79.61,26.82l-78.84,488.48l-6.03,0.3C663.89,746.88,557.07,752,416.85,752z M260.05,734.78c188.1,5.9,364.17-1.06,398.55-2.57
			l74.9-464.09l-65.27-21.99l-403.38,3.88l-80.14,28.98L260.05,734.78z"/>
	</g>
	<g>
		<path class="st4" d="M258.06,731.48c0,0,173.38-142.25,209.41-206.27c28.28-50.25,73.06-158.53-17.46-221.62
			c-90.53-63.08-255.69-31.52-255.69-31.52"/>
		<path class="st5" d="M262.78,737.23l-9.44-11.52c1.72-1.41,172.71-142.09,207.64-204.17c70.79-125.77,20.84-186.73-15.22-211.87
			c-86.94-60.58-248.41-30.62-250.04-30.31l-2.79-14.63c6.86-1.32,169.3-31.41,261.34,32.72c97.18,67.73,46.14,184.37,19.69,231.38
			C437.66,593.36,269.9,731.39,262.78,737.23z"/>
	</g>
	<g>
		<path class="st4" d="M470.7,321.08c33.15-69.83,271.15-58,271.15-58"/>
		<path class="st5" d="M477.42,324.27l-13.45-6.38c34.87-73.48,268.32-62.75,278.25-62.24l-0.74,14.87
			C676.63,267.31,502.85,270.69,477.42,324.27z"/>
	</g>
	<g class="st6">
		<path class="st5" d="M491.41,304.18c0,0,94.25,91.49,72,180.5C532.33,608.99,441.71,707.49,391.4,744.52l-141.39-4.82
			c0,0,190.43-153.68,226.41-231.54c35.99-77.86,38.77-147.82-0.18-181.71C476.25,326.45,467.12,303.3,491.41,304.18z"/>
	</g>
	<g>
		<polygon class="st3" points="702.74,542.74 701.01,527.96 779.68,518.77 595.48,342.29 605.78,331.54 812.82,529.9 		"/>
	</g>
	<g>
		<path class="st4" d="M177.18,282.5c0,0,14.95-8.87,49.8-11.57"/>
		<path class="st5" d="M179.07,285.71l-3.79-6.41c0.64-0.38,16.1-9.34,51.41-12.08l0.57,7.42
			C193.94,277.23,179.21,285.63,179.07,285.71z"/>
	</g>
	<g>
		<polygon class="st5" points="693.87,517.3 707.21,519.66 700.54,562.36 686.46,560.58 		"/>
	</g>
</g>
<g>
	<g>
		<path class="st4" d="M538.63,481.21c0,0,179.71-37.25,297.11-168.04L958.49,431.4c0,0-132.21,142.31-360.51,186.78L538.63,481.21z
			"/>
	</g>
	<g>
		<path class="st2" d="M384.07,561.17c0,0-30.43,121.08-113.86,198.21c0,0-264.46-141.28-185.23-306.95
			c0,0,73.46-121.61,188.38-189.3c114.91-67.68,141.67-51.95,253.44,14.17c111.76,66.11,164.52,156.41,176.78,203.07
			c16.1,61.2-31.44,190.85-182.57,279.01c0,0-86.7-61.39-133.15-189.29L384.07,561.17z"/>
	</g>
	<g>
		<path class="st7" d="M670.01,618.27c0,0-44.57,31.83-76.06,39.7c-31.49,7.87-54.93,15.74-58.16,29.91
			c-3.22,14.17-20.45,38.45,0,43.68C556.24,736.78,626.44,693.47,670.01,618.27z"/>
	</g>
	<g>
		<path class="st7" d="M108.62,622.12c0,0,28.85,20.11,41.44,20.11c12.59,0,43.29,10.24,60.6,29.12
			c17.31,18.9,49.59,30.7,47.22,48.02c-2.36,17.31-53.78-3.72-74.57-19.43C161.07,683.15,120.15,640.66,108.62,622.12z"/>
	</g>
	<g>
		<path class="st7" d="M366.01,613.68c0,0,11.86-63.88,5.19-90.56c-6.54-26.25-10.26-100.74,10.02-102.84
			c20.27-2.1,30.89,39.6,26.7,69.12c-4.2,29.52-9.36,27.42-7.94,44.21c1.4,16.79,4.36,54.26,0,66.48c0,0-12.49-28.69-15.92-38.92
			C384.07,561.17,374.36,599.2,366.01,613.68z"/>
	</g>
	<g>
		<path class="st1" d="M625.74,485.22c0,0,3.76,24.54,10.4,17c6.65-7.55,6.68-26.71,4.99-40.24c-1.68-13.54,5.41-42.76-5.5-63.64
			c-10.89-20.89-45.59-33.09-77.29-64.21c-32.58-31.97-78.66-46.95-73.68-38.73c4.99,8.22,51.25,32.57,58.12,54.29
			c6.86,21.72,25.42,43.85,42.15,65.31C603.53,438.85,611.05,469.75,625.74,485.22z"/>
	</g>
	<g>
		<path class="st1" d="M315.42,604.41c0,0,18.9-22.17,26.18-20.65c7.26,1.52-13.41,21.21-12.88,31.83
			c0.51,10.62-6.09,28.54-15.79,42.64c-9.68,14.07-31.65,41.56-36.22,34.8c-4.55-6.74,19.77-37.81,22.97-46.59
			C302.89,637.68,306.2,617.03,315.42,604.41z"/>
	</g>
	<g class="st6">
		<path class="st5" d="M733.76,503.66c0,0,52.87-132.5,86.48-126.35c33.61,6.15-1.95,57.44-1.95,57.44s48.67-25.38,58.44-0.49
			C884.48,454.01,785.25,492.43,733.76,503.66z"/>
		<path class="st5" d="M727.7,508.79l2.6-6.51c5.53-13.85,54.94-135.17,90.61-128.63c8,1.46,13.35,5.33,15.9,11.5
			c5.01,12.13-2.76,29.97-9.04,41.29c11.29-4.45,28.67-9.59,40.71-5.07c5.59,2.09,9.53,5.97,11.72,11.53
			c0.81,2.06,1.3,5.42-0.96,9.64c-12.47,23.31-100.76,55.17-144.69,64.75L727.7,508.79z M817.84,380.82
			c-21.58,0-57.75,68.84-77.93,117.59c47.59-11.62,123.22-41.54,132.77-59.38c1.11-2.09,0.72-3.09,0.59-3.41
			c-1.4-3.56-3.81-5.94-7.39-7.28c-13.01-4.85-37.51,5.37-45.87,9.71L806.67,445l8.56-12.37c5.77-8.34,19.67-32.61,14.69-44.64
			c-1.54-3.73-4.93-6.03-10.35-7.02C819,380.87,818.43,380.82,817.84,380.82z"/>
	</g>
</g>
</svg>
